<?xml version="1.0" encoding="utf-8"?>
<svg id="master-artboard" viewBox="0 0 390 390" version="1.1" xmlns="http://www.w3.org/2000/svg" x="0px" y="0px" style="enable-background:new 0 0 1400 980;" width="390px" height="390px" xmlns:xlink="http://www.w3.org/1999/xlink"><defs><linearGradient style="vector-effect: non-scaling-stroke;" stroke="null" y2="-0.000118" x2="0.500053" y1="0.999526" x1="0.500053" id="cb4c75d7-b8af-4b7c-b93c-0d81a615737d">
   <stop style="vector-effect: non-scaling-stroke;" stroke="null" stop-opacity="0.25" stop-color="gray" offset="0"/>
   <stop style="vector-effect: non-scaling-stroke;" stroke="null" stop-opacity="0.12" stop-color="gray" offset="0.54"/>
   <stop style="vector-effect: non-scaling-stroke;" stroke="null" stop-opacity="0.1" stop-color="gray" offset="1"/>
  </linearGradient><linearGradient style="vector-effect: non-scaling-stroke;" stroke="null" gradientTransform="translate(-261.96 -454.67) rotate(-3.75)" y2="514.61" x2="370.41" y1="529.73" x1="370.41" id="7dbfc0ad-0edd-4962-ae53-3e10f8076a30" xlink:href="#cb4c75d7-b8af-4b7c-b93c-0d81a615737d"/><linearGradient style="vector-effect: non-scaling-stroke;" stroke="null" gradientTransform="translate(-261.96 -454.67) rotate(-3.75)" y2="492.63" x2="472.13" y1="507.75" x1="472.13" id="2e677a00-ad84-462f-a755-cc915391eaef" xlink:href="#cb4c75d7-b8af-4b7c-b93c-0d81a615737d"/><linearGradient style="vector-effect: non-scaling-stroke;" stroke="null" gradientTransform="translate(-332.83 -332.73) rotate(-13.48)" y2="494.63" x2="646.14" y1="517.73" x1="646.14" id="6fc9dfcb-959f-45f5-9e30-981ed1ece4ee" xlink:href="#cb4c75d7-b8af-4b7c-b93c-0d81a615737d"/><linearGradient style="vector-effect: non-scaling-stroke;" stroke="null" gradientTransform="translate(-117.85 -585.68) rotate(10.2)" y2="548.06" x2="557.24" y1="563.18" x1="557.24" id="39a84653-3cf1-4134-ab42-bf2b0e824fc4" xlink:href="#cb4c75d7-b8af-4b7c-b93c-0d81a615737d"/><linearGradient style="vector-effect: non-scaling-stroke;" stroke="null" gradientTransform="translate(-261.96 -454.67) rotate(-3.75)" y2="610.73" x2="441.24" y1="625.84" x1="441.24" id="7782327f-ae36-4a9a-b462-151375f444b6" xlink:href="#cb4c75d7-b8af-4b7c-b93c-0d81a615737d"/><linearGradient style="vector-effect: non-scaling-stroke;" stroke="null" gradientTransform="translate(-117.85 -585.68) rotate(10.2)" y2="635.14" x2="576.26" y1="650.26" x1="576.26" id="40fab73a-0f13-498f-8851-d851c09f96b3" xlink:href="#cb4c75d7-b8af-4b7c-b93c-0d81a615737d"/></defs><g transform="matrix(2.648648738861084, 0, 0, 2.648648738861084, -324.8819274902344, -50.876991271972656)"><rect id="ee-background" x="0" y="0" width="390" height="390" style="fill: rgb(255, 224, 110); fill-opacity: 0; pointer-events: none;" transform="matrix(1, 0, 0, 1, 0, -11.70408241776613)"/><g transform="matrix(1.5523300170898438, 0, 0, 1.5523300170898438, -108.9233169555664, -356.01734924316406)"><title stroke="null">news</title><g stroke="null" transform="matrix(1, 0, 0, 1, -7.980976357432468, 5.852715995450495)">
  <title stroke="null">background</title>
  <path d="M -1 -1 H 581 V 401 H -1 V -1 Z" stroke="null" fill="none" id="canvas_background"/>
 </g><g stroke="null" transform="matrix(1, 0, 0, 1, -12.42068363663779, -36.32450721011591)">
  <title stroke="null">Layer 1</title>
  
  
  
  <path stroke="null" id="svg_20" fill="#fda57d" d="m233.917313,336.134633s0.64,-9.24 -2.24,-7.21s-1.64,7.78 -1.64,7.78l3.88,-0.57z" transform="matrix(1, 0, 0, 1, 1.0349682685209558, -25.516263961791992)"/>
  <path stroke="null" id="svg_21" fill="#fda57d" d="m166.337313,388.834633s-2.66,9.05 1.6,7.46s3.73,-7.46 3.73,-7.46l-5.33,0z" transform="matrix(1, 0, 0, 1, 1.0349682685209558, -25.516263961791992)"/>
  <path d="M 201.497314 340.364624 H 207.357315 V 345.694624 H 201.497314 V 340.364624 Z" stroke="null" id="svg_22" fill="#fda57d" transform="matrix(1, 0, 0, 1, 1.0349682685209558, -25.516263961791992)"/>
  
  
  
  
  <path stroke="null" id="svg_27" fill="#4d8af0" d="M 201.227313 343.834633 C 201.227313 343.834633 184.71731300000002 339.044633 166.607313 389.104633 L 171.93731300000002 389.104633 C 171.93731300000002 389.104633 179.39731300000003 367.264633 191.10731300000003 364.604633 C 191.10731300000003 364.604633 199.62731300000004 375.25463299999996 185.77731300000002 396.604633 L 196.96731300000002 396.604633 L 196.96731300000002 389.464633 C 196.9574737548828 387.8319091796875 196.94801330566406 386.1981506347656 196.99603271484375 384.56768798828125 C 197.02786254882812 383.4876708984375 197.08489990234375 382.4090881347656 197.1837921142578 381.3332214355469 C 197.23646545410156 380.7601318359375 197.2904815673828 380.1870422363281 197.34613037109375 379.6139831542969 C 198.07192993164062 372.1393737792969 199.07424926757812 364.6730041503906 200.96731567382812 357.3846435546875 C 202.2503103291403 352.97037105090754 202.3400248529721 348.2948642758468 201.227313 343.834633 Z" transform="matrix(1, 0, 0, 1, 1.0349682685209558, -25.516263961791992)"/>
  <path stroke="null" id="svg_28" fill="#4d8af0" d="m207.617313,343.834633l0,1.6s3.73,16.51 6.92,27.16l1.63,2.17l0,-18.68l15.45,0l2.66,-20.77l-4.26,0l-4.85,12.24s-12.76,-5.86 -17.55,-3.72z" transform="matrix(1, 0, 0, 1, 1.0349682685209558, -25.516263961791992)"/>
  
  
  
  
  
  
  
  
  
  
  
  
  
  
  
  
  
  
  
  
  
  
  
  
  
  
  
  <g stroke="null" id="svg_259">
   <path stroke="null" style="vector-effect: non-scaling-stroke;" id="svg_250" fill="#fff" d="m-2607.611025,-463.489544a15.560146,15.560146 0 1 1 8.081873,13.651396c-1.076034,0.7656 -3.701035,2.292662 -6.294236,1.192674l3.121526,-3.49916a15.522131,15.522131 0 0 1 -4.909164,-11.34491z"/>
  </g>
  
  <g stroke="null" id="svg_456" transform="matrix(0.5199441909790039, 0, 0, 0.5199441909790039, 69.6159896850586, 67.64507878256231)">
   
   
   
   
   
   
   <path stroke="null" id="svg_446" fill="#6c63ff" d="m326.780132,313.990783c-1.781627,1.068493 -4.955865,2.407322 -8.1996,1.031432l-2.096819,-0.889424l4.201881,-4.710259a20.067664,20.067664 0 1 1 6.094539,4.568264l0,-0.000013zm-8.050815,-18.081576a16.676528,16.676528 0 0 0 5.309585,12.269682l1.159028,1.089169l-2.64409,2.963929a8.827332,8.827332 0 0 0 3.185078,-1.457236l0.834592,-0.593855l0.897622,0.493214a16.836813,16.836813 0 1 0 -8.741815,-14.764895l0,-0.000009z" transform="matrix(1.806735277175903, 0, 0, 1.806735277175903, -345.9732666015625, -93.04740066447812)"/>
   <path stroke="null" id="svg_447" fill="#fff" d="M 317.097122 295.909175 C 317.102709681073 281.69867917831476 332.48951495918254 272.8231681348161 344.7933715005981 279.93325511941623 C 357.0972280420136 287.04334210401635 357.09024344067234 304.80646188112286 344.7807992181838 311.906870718208 C 339.19715821460005 315.12766064246193 332.3378689866879 315.20264248680104 326.685155 312.104682 C 325.408589 313.012961 319.217908 313.519626 319.217908 313.519626 L 322.92117 309.368353 C 319.20006620078044 305.88183437561 317.0912482974845 301.00842797623517 317.097121 295.909174 L 317.097122 295.909175 Z" transform="matrix(1.806735277175903, 0, 0, 1.806735277175903, -345.9732666015625, -93.04740066447812)" style="fill-opacity: 0;"/>
   <path stroke="null" id="svg_448" opacity="0.1" d="m350.76718,295.815904a18.468097,18.468097 0 0 0 -16.83503,-18.394618c0.537925,-0.047118 1.082053,-0.072616 1.632207,-0.072616a18.467234,18.467234 0 0 1 0,36.934467c-0.549321,0 -1.092506,-0.025828 -1.629622,-0.072843a18.46811,18.46811 0 0 0 16.832445,-18.39439z" transform="matrix(1.806735277175903, 0, 0, 1.806735277175903, -345.9732666015625, -93.04740066447812)"/>
   <path d="M 9666.799805 5806.838379 H 9728.017845 V 5812.523359 H 9666.799805 V 5806.838379 Z" stroke="null" transform="matrix(0.3894513845443726, 0, 0, 0.3894513845443726, -3523.6005859375, -1826.718749236256)" id="svg_449" fill="#6c63ff"/>
   <path d="M 9666.799805 5826.504395 H 9773.497704 V 5832.189374 H 9666.799805 V 5826.504395 Z" stroke="null" transform="matrix(0.3894513845443726, 0, 0, 0.3894513845443726, -3523.6005859375, -1826.718749236256)" id="svg_450" fill="#6c63ff" style="fill: rgb(0, 0, 0);"/>
   <path d="M 9666.799805 5846.17041 H 9773.393234 V 5851.85539 H 9666.799805 V 5846.17041 Z" stroke="null" transform="matrix(0.3894513845443726, 0, 0, 0.3894513845443726, -3523.6005859375, -1826.718749236256)" id="svg_451" fill="#6c63ff" style="fill: rgb(0, 0, 0);"/>
  <path d="M 254.3259735107422 328.912109375 L 254.3259735107422 328.912109375" style="fill: rgb(108, 99, 255); fill-opacity: 1; stroke: rgb(0, 0, 0); stroke-opacity: 1; stroke-width: 0; paint-order: fill;"/><path d="M 247.59312438964844 458.45892333984375" style="fill: rgb(255, 255, 255); fill-opacity: 0; stroke: rgb(0, 0, 0); stroke-opacity: 1; stroke-width: 0; paint-order: fill;"/><path d="M 250.23699951171875 461.102783203125 L 250.23699951171875 461.102783203125" style="fill: rgb(255, 255, 255); fill-opacity: 0; stroke: rgb(0, 0, 0); stroke-opacity: 1; stroke-width: 0; paint-order: fill;"/><path d="M 230.38560485839844 423.4861145019531 L 230.38560485839844 423.4861145019531" style="fill: rgb(255, 255, 255); fill-opacity: 0; stroke: rgb(0, 0, 0); stroke-opacity: 1; stroke-width: 0; paint-order: fill;"/><path d="M 151.4476776123047 441.66424560546875" style="fill: rgb(0, 0, 0); fill-opacity: 1; stroke: rgb(0, 0, 0); stroke-opacity: 1; stroke-width: 0; paint-order: fill;"/><path d="M 187.30592346191406 476.27740478515625" style="fill: rgb(0, 0, 0); fill-opacity: 1; stroke: rgb(0, 0, 0); stroke-opacity: 1; stroke-width: 0; paint-order: fill;"/></g>
  
  
  
  
 <path stroke="null" id="svg_32" fill="#f55f44" d="m247.297313,309.764633s9.59,3.73 6.39,17l-43.14,9.05l0,-2.13l36.75,-23.92z" transform="matrix(1, 0, 0, 1, 1.0349682685209558, -25.516263961791992)"/><path d="M 278.7171936035156 411.1304016113281" style="fill: rgb(51, 51, 51); fill-opacity: 1; stroke: rgb(0, 0, 0); stroke-opacity: 1; stroke-width: 0; paint-order: fill;"/><path d="M 92.6440658569336 347.2502746582031" style="fill: rgb(245, 0, 53); fill-opacity: 1; stroke: rgb(0, 0, 0); stroke-opacity: 1; stroke-width: 0; paint-order: fill;"/><path d="M 201.0810546875 308.83917236328125 L 201.0810546875 308.83917236328125" style="fill: rgb(77, 138, 240); fill-opacity: 1; stroke: rgb(0, 0, 0); stroke-opacity: 1; stroke-width: 0; paint-order: fill;"/><path d="M 236.81878662109375 312.5916442871094" style="fill: rgb(253, 165, 125); fill-opacity: 1; stroke: rgb(0, 0, 0); stroke-opacity: 1; stroke-width: 0; paint-order: fill;"/><path d="M 185.7783660888672 336.5165100097656 L 185.7783660888672 336.5165100097656" style="fill: rgb(0, 0, 0); fill-opacity: 1; stroke: rgb(0, 0, 0); stroke-opacity: 1; stroke-width: 0; paint-order: fill;"/><path d="M 170.11199951171875 367.59033203125 L 170.11199951171875 367.59033203125 L 169.20567321777344 367.71978759765625" style="fill: rgb(0, 0, 0); fill-opacity: 1; stroke: rgb(0, 0, 0); stroke-opacity: 1; stroke-width: 0; paint-order: fill;"/><path d="M 201.57421875 349.0755310058594 L 199.5026397705078 350.4997253417969 L 201.0563201904297 353.21868896484375" style="fill: rgb(255, 255, 255); fill-opacity: 0; stroke: rgb(0, 0, 0); stroke-opacity: 1; stroke-width: 0; paint-order: fill;" transform="matrix(0.9999999999999999, 0, 0, 0.9999999999999999, 12.688469543511168, 0.3884225370463241)"/><path d="M 201.7036895751953 349.0755310058594 L 201.18580627441406 349.0755310058594" style="fill: rgb(0, 0, 0); fill-opacity: 1; stroke: rgb(0, 0, 0); stroke-opacity: 1; stroke-width: 0; paint-order: fill;"/><path d="M 229.6701202392578 352.7008056640625" style="fill: rgb(0, 0, 0); fill-opacity: 1; stroke: rgb(0, 0, 0); stroke-opacity: 1; stroke-width: 0; paint-order: fill;"/><path d="M 232.3890838623047 350.4997253417969" style="fill: rgb(0, 0, 0); fill-opacity: 1; stroke: rgb(0, 0, 0); stroke-opacity: 1; stroke-width: 0; paint-order: fill;"/><path d="M 316.75250244140625 439.32012939453125" style="fill: rgb(77, 138, 240); fill-opacity: 1; stroke: rgb(0, 0, 0); stroke-opacity: 1; stroke-width: 0; paint-order: fill;"/><g stroke="null" id="svg_18" opacity="0.5" transform="matrix(1, 0, 0, 1, 25.453362685091633, -25.516263961791992)">
   <path stroke="null" id="svg_19" fill="url(#cb4c75d7-b8af-4b7c-b93c-0d81a615737d)" d="m249.167313,305.764633l-38.53,25.1a7.26,7.26 0 0 0 -2.5,-3.94a6.37,6.37 0 0 0 0.21,-3.78a2.37,2.37 0 0 0 -0.41,-1a1.69,1.69 0 0 0 -1.51,-0.42l-6.12,0.4a3.21,3.21 0 0 0 -2,0.58c-0.86,0.72 -1.12,2.23 -2,2.87c-0.59,0.42 -1.34,0.38 -2,0.71c-1.41,0.75 -1.72,3 -1.83,4.83c-0.15,2.5 -0.14,5.44 1.49,7c1.19,1.11 2.84,1 4.34,0.92l1.51,-0.12a7.22,7.22 0 0 0 1.2,0.57l0,2.13l-0.28,0s-17.27,-5 -36.24,47.24l-0.33,0s-2.8,9.5 1.68,7.83c3.9,-1.46 4,-6.33 3.93,-7.55l0.26,0s7.83,-22.92 20.13,-25.72c0,0 8.95,11.18 -5.59,33.54l11.38,0a17.37,17.37 0 0 0 1.48,7.27c3.35,6.71 -6.71,70.44 -6.71,70.44l8.39,0l4.22,-21.12l0.53,21.12l6.15,0l6.15,-40.61l-0.84,-48.92l0,-12.67l1.12,1.49l0,-19.57l16.21,0l2.8,-21.8l-0.29,0a26.38,26.38 0 0 0 -0.19,-4.56l20.9,-4.39c3.29,-13.97 -6.71,-17.87 -6.71,-17.87zm-18.3,27.16l-4.9,12.53s-13.42,-6.15 -18.45,-3.91l-0.28,0l0,-2.66a7.26,7.26 0 0 0 3.61,-5.78l20.15,-4.23a12.77,12.77 0 0 0 -0.14,4.04l0.01,0.01z"/>
  </g><path stroke="null" id="svg_29" fill="#333" d="m198.027313,385.374633s-3.2,11.72 0,18.11s-6.39,67.11 -6.39,67.11l8,0l11.45,-57.26l1.86,-28l-14.92,0.04z" transform="matrix(1.0524035692214966, 0, 0, 0.46736001968383795, -10.216038703918514, 178.14627659750374)"/><path d="M 215.0773162841797 385.3746337890625 L 215.87733459472656 431.97467041015625 L 210.01730346679688 470.59466552734375 L 204.15733337402344 470.59466552734375 L 202.02731323242188 385.3746337890625 L 215.0773162841797 385.3746337890625 Z" stroke="null" id="svg_30" fill="#333" transform="matrix(0.5609773397445679, 0, 0, 0.36684271693229675, 96.16468048095703, 216.87720311117562)"/><path style="fill: rgb(77, 138, 240); fill-opacity: 1; stroke: rgb(0, 0, 0); stroke-opacity: 1; stroke-width: 0; paint-order: fill;" d="M 296.6720275878906 489.7107238769531"/><path style="fill: rgb(0, 0, 0); fill-opacity: 1; stroke: rgb(0, 0, 0); stroke-opacity: 1; stroke-width: 0; paint-order: fill;" d="M 128.8297119140625 427.953857421875 L 250.4490966796875 385.14080810546875"/><path d="M 203.46839904785156 396.1282043457031 L 203.46839904785156 396.1282043457031" style="fill: rgb(0, 0, 0); fill-opacity: 1; stroke: rgb(0, 0, 0); stroke-opacity: 1; stroke-width: 0; paint-order: fill;" transform="matrix(1.1127971410751343, 0, 0, 0.4905701875686646, -22.018179775365667, 183.2099193388645)"/></g></g></g></svg>
